<svg xmlns="http://www.w3.org/2000/svg" viewBox="0 0 120 120" fill="none">
  <defs>
    <linearGradient id="bg" x1="0" y1="0" x2="120" y2="120" gradientUnits="userSpaceOnUse">
      <stop offset="0%" stop-color="#6c8cff"/>
      <stop offset="100%" stop-color="#34d399"/>
    </linearGradient>
  </defs>
  <rect width="120" height="120" rx="28" fill="url(#bg)"/>
  <g stroke="#fff" stroke-width="4" stroke-linecap="round" stroke-linejoin="round" fill="none">
    <!-- Flask / Lab icon -->
    <path d="M48 30h24"/>
    <path d="M54 30v22l-16 28a4 4 0 003.5 6h37a4 4 0 003.5-6L66 52V30"/>
    <!-- Bubbles -->
    <circle cx="54" cy="72" r="3" fill="#fff" stroke="none" opacity="0.7"/>
    <circle cx="66" cy="66" r="2.5" fill="#fff" stroke="none" opacity="0.5"/>
    <circle cx="60" cy="76" r="2" fill="#fff" stroke="none" opacity="0.6"/>
    <!-- AI sparkle -->
    <path d="M85 25l2 6 6 2-6 2-2 6-2-6-6-2 6-2z" fill="#fff" stroke="none" opacity="0.9"/>
    <path d="M30 45l1.5 4 4 1.5-4 1.5-1.5 4-1.5-4-4-1.5 4-1.5z" fill="#fff" stroke="none" opacity="0.6"/>
  </g>
</svg>
